<svg width="1171" height="430" viewBox="0 0 1171 430" fill="none" xmlns="http://www.w3.org/2000/svg">
<g id="about-grid">
<g id="grid">
<g id="row01">
<path id="sq21" d="M790 0.5H819.5V39.5H780.5V10C780.5 4.7533 784.753 0.5 790 0.5Z" stroke="#8A8A8A"/>
<rect id="sq22" x="819.5" y="0.5" width="39" height="39" stroke="#8A8A8A"/>
<rect id="sq24" x="897.5" y="0.5" width="39" height="39" stroke="#8A8A8A"/>
<rect id="sq25" x="936.5" y="0.5" width="39" height="39" stroke="#8A8A8A"/>
<rect id="sq26" x="975.5" y="0.5" width="39" height="39" stroke="#8A8A8A"/>
<rect id="sq27" x="1014.5" y="0.5" width="39" height="39" stroke="#8A8A8A"/>
<rect id="sq28" x="1053.5" y="0.5" width="39" height="39" stroke="#8A8A8A"/>
<rect id="sq29" x="1092.5" y="0.5" width="39" height="39" stroke="#8A8A8A"/>
</g>
<g id="row02">
<rect id="sq21_2" x="780.5" y="39.5" width="39" height="39" stroke="#8A8A8A"/>
<rect id="sq22_2" x="819.5" y="39.5" width="39" height="39" stroke="#8A8A8A"/>
<rect id="sq23" x="858.5" y="39.5" width="39" height="39" stroke="#8A8A8A"/>
<rect id="sq24_2" x="897.5" y="39.5" width="39" height="39" stroke="#8A8A8A"/>
<rect id="sq25_2" x="936.5" y="39.5" width="39" height="39" stroke="#8A8A8A"/>
<rect id="sq26_2" x="975.5" y="39.5" width="39" height="39" stroke="#8A8A8A"/>
<rect id="sq27_2" x="1014.5" y="39.5" width="39" height="39" stroke="#8A8A8A"/>
<rect id="sq28_2" x="1053.5" y="39.5" width="39" height="39" stroke="#8A8A8A"/>
<rect id="sq29_2" x="1092.5" y="39.5" width="39" height="39" stroke="#8A8A8A"/>
<path id="sq30" d="M1161 39.5C1166.25 39.5 1170.5 43.7533 1170.5 49V78.5H1131.5V39.5H1161Z" stroke="#8A8A8A"/>
</g>
<g id="row03">
<rect id="sq20" x="741.5" y="78.5" width="39" height="39" stroke="#8A8A8A"/>
<rect id="sq21_3" x="780.5" y="78.5" width="39" height="39" stroke="#8A8A8A"/>
<rect id="sq22_3" x="819.5" y="78.5" width="39" height="39" stroke="#8A8A8A"/>
<rect id="sq23_2" x="858.5" y="78.5" width="39" height="39" stroke="#8A8A8A"/>
<rect id="sq24_3" x="897.5" y="78.5" width="39" height="39" stroke="#8A8A8A"/>
<rect id="sq25_3" x="936.5" y="78.5" width="39" height="39" stroke="#8A8A8A"/>
<rect id="sq26_3" x="975.5" y="78.5" width="39" height="39" stroke="#8A8A8A"/>
<rect id="sq27_3" x="1014.5" y="78.5" width="39" height="39" stroke="#8A8A8A"/>
<rect id="sq28_3" x="1053.5" y="78.5" width="39" height="39" stroke="#8A8A8A"/>
<rect id="sq29_3" x="1092.5" y="78.5" width="39" height="39" stroke="#8A8A8A"/>
<rect id="sq30_2" x="1131.5" y="78.5" width="39" height="39" stroke="#8A8A8A"/>
</g>
<g id="row04">
<rect id="sq20_2" x="741.5" y="117.5" width="39" height="39" stroke="#8A8A8A"/>
<rect id="sq21_4" x="780.5" y="117.5" width="39" height="39" stroke="#8A8A8A"/>
<rect id="sq22_4" x="819.5" y="117.5" width="39" height="39" stroke="#8A8A8A"/>
<rect id="sq23_3" x="858.5" y="117.5" width="39" height="39" stroke="#8A8A8A"/>
<rect id="sq24_4" x="897.5" y="117.5" width="39" height="39" stroke="#8A8A8A"/>
<rect id="sq25_4" x="936.5" y="117.5" width="39" height="39" stroke="#8A8A8A"/>
<rect id="sq26_4" x="975.5" y="117.5" width="39" height="39" stroke="#8A8A8A"/>
<rect id="sq27_4" x="1014.5" y="117.5" width="39" height="39" stroke="#8A8A8A"/>
<rect id="sq28_4" x="1053.5" y="117.5" width="39" height="39" stroke="#8A8A8A"/>
<rect id="sq29_4" x="1092.5" y="117.5" width="39" height="39" stroke="#8A8A8A"/>
<rect id="sq30_3" x="1131.5" y="117.5" width="39" height="39" stroke="#8A8A8A"/>
</g>
<g id="row05">
<rect id="sq20_3" x="741.5" y="156.5" width="39" height="39" stroke="#8A8A8A"/>
<rect id="sq20_4" x="702.5" y="156.5" width="39" height="39" stroke="#8A8A8A"/>
<rect id="sq21_5" x="780.5" y="156.5" width="39" height="39" stroke="#8A8A8A"/>
<rect id="sq22_5" x="819.5" y="156.5" width="39" height="39" stroke="#8A8A8A"/>
<rect id="sq23_4" x="858.5" y="156.5" width="39" height="39" stroke="#8A8A8A"/>
<rect id="sq24_5" x="897.5" y="156.5" width="39" height="39" stroke="#8A8A8A"/>
<rect id="sq25_5" x="936.5" y="156.5" width="39" height="39" stroke="#8A8A8A"/>
<rect id="sq26_5" x="975.5" y="156.5" width="39" height="39" stroke="#8A8A8A"/>
<rect id="sq27_5" x="1014.5" y="156.5" width="39" height="39" stroke="#8A8A8A"/>
<rect id="sq28_5" x="1053.5" y="156.5" width="39" height="39" stroke="#8A8A8A"/>
<rect id="sq29_5" x="1092.5" y="156.5" width="39" height="39" stroke="#8A8A8A"/>
<rect id="sq30_4" x="1131.5" y="156.5" width="39" height="39" stroke="#8A8A8A"/>
</g>
<g id="row06">
<rect id="sq19" x="702.5" y="195.5" width="39" height="39" stroke="#8A8A8A"/>
<rect id="sq20_5" x="741.5" y="195.5" width="39" height="39" stroke="#8A8A8A"/>
<rect id="sq21_6" x="780.5" y="195.5" width="39" height="39" stroke="#8A8A8A"/>
<rect id="sq22_6" x="819.5" y="195.5" width="39" height="39" stroke="#8A8A8A"/>
<rect id="sq23_5" x="858.5" y="195.5" width="39" height="39" stroke="#8A8A8A"/>
<rect id="sq24_6" x="897.5" y="195.5" width="39" height="39" stroke="#8A8A8A"/>
<rect id="sq25_6" x="936.5" y="195.5" width="39" height="39" stroke="#8A8A8A"/>
<rect id="sq26_6" x="975.5" y="195.5" width="39" height="39" stroke="#8A8A8A"/>
<rect id="sq27_6" x="1014.5" y="195.5" width="39" height="39" stroke="#8A8A8A"/>
<rect id="sq28_6" x="1053.5" y="195.5" width="39" height="39" stroke="#8A8A8A"/>
<rect id="sq29_6" x="1092.5" y="195.5" width="39" height="39" stroke="#8A8A8A"/>
<rect id="sq30_5" x="1131.5" y="195.5" width="39" height="39" stroke="#8A8A8A"/>
</g>
<g id="row07">
<rect id="sq18" x="663.5" y="234.5" width="39" height="39" stroke="#8A8A8A"/>
<path id="sq18_2" d="M634 234.5H663.5V273.5H624.5V244C624.5 238.753 628.753 234.5 634 234.5Z" stroke="#8A8A8A"/>
<rect id="sq19_2" x="702.5" y="234.5" width="39" height="39" stroke="#8A8A8A"/>
<rect id="sq20_6" x="741.5" y="234.5" width="39" height="39" stroke="#8A8A8A"/>
<rect id="sq21_7" x="780.5" y="234.5" width="39" height="39" stroke="#8A8A8A"/>
<rect id="sq22_7" x="819.5" y="234.5" width="39" height="39" stroke="#8A8A8A"/>
<rect id="sq23_6" x="858.5" y="234.5" width="39" height="39" stroke="#8A8A8A"/>
<rect id="sq24_7" x="897.5" y="234.5" width="39" height="39" stroke="#8A8A8A"/>
<rect id="sq25_7" x="936.5" y="234.5" width="39" height="39" stroke="#8A8A8A"/>
<rect id="sq26_7" x="975.5" y="234.5" width="39" height="39" stroke="#8A8A8A"/>
<rect id="sq27_7" x="1014.5" y="234.5" width="39" height="39" stroke="#8A8A8A"/>
<rect id="sq28_7" x="1053.5" y="234.5" width="39" height="39" stroke="#8A8A8A"/>
<rect id="sq29_7" x="1092.5" y="234.5" width="39" height="39" stroke="#8A8A8A"/>
<rect id="sq30_6" x="1131.5" y="234.5" width="39" height="39" stroke="#8A8A8A"/>
</g>
<g id="row08">
<path id="sq14" d="M517 273.5H546.5V312.5H507.5V283C507.5 277.753 511.753 273.5 517 273.5Z" stroke="#8A8A8A"/>
<rect id="sq15" x="546.5" y="273.5" width="39" height="39" stroke="#8A8A8A"/>
<rect id="sq16" x="585.5" y="273.5" width="39" height="39" stroke="#8A8A8A"/>
<rect id="sq17" x="624.5" y="273.5" width="39" height="39" stroke="#8A8A8A"/>
<rect id="sq18_3" x="663.5" y="273.5" width="39" height="39" stroke="#8A8A8A"/>
<rect id="sq19_3" x="702.5" y="273.5" width="39" height="39" stroke="#8A8A8A"/>
<rect id="sq20_7" x="741.5" y="273.5" width="39" height="39" stroke="#8A8A8A"/>
<rect id="sq21_8" x="780.5" y="273.5" width="39" height="39" stroke="#8A8A8A"/>
<rect id="sq22_8" x="819.5" y="273.5" width="39" height="39" stroke="#8A8A8A"/>
<rect id="sq23_7" x="858.5" y="273.5" width="39" height="39" stroke="#8A8A8A"/>
<rect id="sq24_8" x="897.5" y="273.5" width="39" height="39" stroke="#8A8A8A"/>
<rect id="sq25_8" x="936.5" y="273.5" width="39" height="39" stroke="#8A8A8A"/>
<rect id="sq26_8" x="975.5" y="273.5" width="39" height="39" stroke="#8A8A8A"/>
<rect id="sq27_8" x="1014.5" y="273.5" width="39" height="39" stroke="#8A8A8A"/>
<rect id="sq28_8" x="1053.5" y="273.5" width="39" height="39" stroke="#8A8A8A"/>
<rect id="sq29_8" x="1092.5" y="273.5" width="39" height="39" stroke="#8A8A8A"/>
<rect id="sq30_7" x="1131.5" y="273.5" width="39" height="39" stroke="#8A8A8A"/>
</g>
<g id="row09">
<rect id="sq13" x="468.5" y="312.5" width="39" height="39" stroke="#8A8A8A"/>
<rect id="sq14_2" x="507.5" y="312.5" width="39" height="39" stroke="#8A8A8A"/>
<rect id="sq15_2" x="546.5" y="312.5" width="39" height="39" stroke="#8A8A8A"/>
<rect id="sq16_2" x="585.5" y="312.5" width="39" height="39" stroke="#8A8A8A"/>
<rect id="sq17_2" x="624.5" y="312.5" width="39" height="39" stroke="#8A8A8A"/>
<rect id="sq18_4" x="663.5" y="312.5" width="39" height="39" stroke="#8A8A8A"/>
<rect id="sq19_4" x="702.5" y="312.5" width="39" height="39" stroke="#8A8A8A"/>
<rect id="sq20_8" x="741.5" y="312.5" width="39" height="39" stroke="#8A8A8A"/>
<rect id="sq21_9" x="780.5" y="312.5" width="39" height="39" stroke="#8A8A8A"/>
<rect id="sq22_9" x="819.5" y="312.5" width="39" height="39" stroke="#8A8A8A"/>
<rect id="sq23_8" x="858.5" y="312.5" width="39" height="39" stroke="#8A8A8A"/>
<rect id="sq24_9" x="897.5" y="312.5" width="39" height="39" stroke="#8A8A8A"/>
<rect id="sq25_9" x="936.5" y="312.5" width="39" height="39" stroke="#8A8A8A"/>
<rect id="sq26_9" x="975.5" y="312.5" width="39" height="39" stroke="#8A8A8A"/>
<rect id="sq27_9" x="1014.5" y="312.5" width="39" height="39" stroke="#8A8A8A"/>
<rect id="sq28_9" x="1053.5" y="312.5" width="39" height="39" stroke="#8A8A8A"/>
<rect id="sq29_9" x="1092.5" y="312.5" width="39" height="39" stroke="#8A8A8A"/>
</g>
<g id="row10">
<path id="sq13_2" d="M507.5 351.5V390.5H478C472.753 390.5 468.5 386.247 468.5 381V351.5H507.5Z" stroke="#8A8A8A"/>
<rect id="sq14_3" x="507.5" y="351.5" width="39" height="39" stroke="#8A8A8A"/>
<rect id="sq15_3" x="546.5" y="351.5" width="39" height="39" stroke="#8A8A8A"/>
<rect id="sq16_3" x="585.5" y="351.5" width="39" height="39" stroke="#8A8A8A"/>
<rect id="sq17_3" x="624.5" y="351.5" width="39" height="39" stroke="#8A8A8A"/>
<rect id="sq18_5" x="663.5" y="351.5" width="39" height="39" stroke="#8A8A8A"/>
<rect id="sq19_5" x="702.5" y="351.5" width="39" height="39" stroke="#8A8A8A"/>
<rect id="sq20_9" x="741.5" y="351.5" width="39" height="39" stroke="#8A8A8A"/>
<rect id="sq21_10" x="780.5" y="351.5" width="39" height="39" stroke="#8A8A8A"/>
<rect id="sq22_10" x="819.5" y="351.5" width="39" height="39" stroke="#8A8A8A"/>
<rect id="sq23_9" x="858.5" y="351.5" width="39" height="39" stroke="#8A8A8A"/>
<rect id="sq24_10" x="897.5" y="351.5" width="39" height="39" stroke="#8A8A8A"/>
<rect id="sq25_10" x="936.5" y="351.5" width="39" height="39" stroke="#8A8A8A"/>
<rect id="sq26_10" x="975.5" y="351.5" width="39" height="39" stroke="#8A8A8A"/>
<rect id="sq27_10" x="1014.5" y="351.5" width="39" height="39" stroke="#8A8A8A"/>
<path id="sq28_10" d="M1092.5 351.5V381C1092.5 386.247 1088.25 390.5 1083 390.5H1053.5V351.5H1092.5Z" stroke="#8A8A8A"/>
</g>
<g id="row11">
<rect id="sq16_4" x="585.5" y="390.5" width="39" height="39" stroke="#8A8A8A"/>
<rect id="sq17_4" x="624.5" y="390.5" width="39" height="39" stroke="#8A8A8A"/>
<rect id="sq18_6" x="663.5" y="390.5" width="39" height="39" stroke="#8A8A8A"/>
<rect id="sq19_6" x="702.5" y="390.5" width="39" height="39" stroke="#8A8A8A"/>
<rect id="sq20_10" x="741.5" y="390.5" width="39" height="39" stroke="#8A8A8A"/>
<rect id="sq21_11" x="780.5" y="390.5" width="39" height="39" stroke="#8A8A8A"/>
<rect id="sq22_11" x="819.5" y="390.5" width="39" height="39" stroke="#8A8A8A"/>
<rect id="sq23_10" x="858.5" y="390.5" width="39" height="39" stroke="#8A8A8A"/>
<path id="sq24_11" d="M936.5 390.5V420C936.5 425.247 932.247 429.5 927 429.5H897.5V390.5H936.5Z" stroke="#8A8A8A"/>
</g>
</g>
<g id="elements">
<g id="element-04">
<path d="M1034 312H1024.5V302.5H1034V312Z" fill="#8A8A8A"/>
<path d="M1053 312H1043.5V302.5H1053V312Z" fill="#8A8A8A"/>
<path d="M1024.5 302.5H1015V293H1024.5V302.5Z" fill="#8A8A8A"/>
<path d="M1043.5 302.5H1034V293H1043.5V302.5Z" fill="#8A8A8A"/>
<path d="M1034 293H1024.5V283.5H1034V293Z" fill="#8A8A8A"/>
<path d="M1053 293H1043.5V283.5H1053V293Z" fill="#8A8A8A"/>
<path d="M1024.5 283.5H1015V274H1024.5V283.5Z" fill="#8A8A8A"/>
<path d="M1043.5 283.5H1034V274H1043.5V283.5Z" fill="#8A8A8A"/>
</g>
<path id="element-03" d="M858.511 240.269C861.244 257.289 874.677 270.721 891.679 273.426C874.628 276.138 861.169 289.641 858.488 306.73C855.754 289.71 842.322 276.277 825.32 273.573C842.371 270.862 855.831 257.358 858.511 240.269Z" fill="#C4C2BB" stroke="#8A8A8A"/>
<path id="element-02" d="M859 79H832.334V65.6674H845.667V52.3337H859V79ZM845.667 52.3337H832.334V65.6674H819V39H845.667V52.3337Z" fill="#8A8A8A"/>
<path id="element-01" fill-rule="evenodd" clip-rule="evenodd" d="M663.5 411C663.459 399.692 654.297 390.538 643 390.538C654.322 390.538 663.5 381.343 663.5 370C663.541 381.308 672.703 390.462 684 390.462C672.678 390.462 663.5 399.657 663.5 411Z" fill="#8A8A8A"/>
</g>
</g>
</svg>
