<svg width="5022" height="1147" viewBox="0 0 5022 1147" fill="none" xmlns="http://www.w3.org/2000/svg">
<g id="Mask group">
<mask id="mask0_1010_125" style="mask-type:alpha" maskUnits="userSpaceOnUse" x="0" y="0" width="5022" height="1147">
<g id="Group">
<path id="Vector" d="M5022 0H0V1147H5022V0Z" fill="#D9D9D9"/>
</g>
</mask>
<g mask="url(#mask0_1010_125)">
<g id="Group_2">
<g id="Group_3" filter="url(#filter0_f_1010_125)">
<path id="Vector_2" d="M704.579 435.986C161.909 395.154 -721.274 402.406 -1095.04 411.136L-574.45 669.722H2473.86L5217.71 679L5988.12 475.173C6004.69 473.012 5873.76 456.753 5217.71 409.012C4397.59 349.334 3167.4 387.809 2781.81 436.219C2396.23 484.629 1382.92 487.025 704.579 435.986Z" fill="#FF7300"/>
</g>
<g id="Group_4" filter="url(#filter1_f_1010_125)">
<path id="Vector_3" d="M5988.12 723.637C6004.69 715.914 5873.76 657.825 5217.68 487.247C4397.59 274.024 3167.4 411.492 2781.81 584.458C2396.22 757.424 1382.91 765.984 704.578 583.624C161.905 437.736 -721.281 463.647 -1095.04 494.838" stroke="#FF0000" stroke-width="71"/>
</g>
<g id="Group_5" opacity="0.5" filter="url(#filter2_f_1010_125)">
<path id="Vector_4" d="M5988.09 672.668C6004.66 664.946 5873.73 606.856 5217.68 436.278C4397.59 223.055 3167.37 360.523 2781.78 533.489C2115.04 832.579 1382.89 715.015 704.554 532.655C161.882 386.767 -721.301 412.678 -1095.06 443.869" stroke="#FF0000" stroke-width="71"/>
</g>
</g>
</g>
</g>
<defs>
<filter id="filter0_f_1010_125" x="-1299.04" y="174.604" width="7492.49" height="708.396" filterUnits="userSpaceOnUse" color-interpolation-filters="sRGB">
<feFlood flood-opacity="0" result="BackgroundImageFix"/>
<feBlend mode="normal" in="SourceGraphic" in2="BackgroundImageFix" result="shape"/>
<feGaussianBlur stdDeviation="102" result="effect1_foregroundBlur_1010_125"/>
</filter>
<filter id="filter1_f_1010_125" x="-1301.99" y="139.101" width="7530.95" height="820.711" filterUnits="userSpaceOnUse" color-interpolation-filters="sRGB">
<feFlood flood-opacity="0" result="BackgroundImageFix"/>
<feBlend mode="normal" in="SourceGraphic" in2="BackgroundImageFix" result="shape"/>
<feGaussianBlur stdDeviation="102" result="effect1_foregroundBlur_1010_125"/>
</filter>
<filter id="filter2_f_1010_125" x="-1302.02" y="88.1318" width="7530.94" height="867.634" filterUnits="userSpaceOnUse" color-interpolation-filters="sRGB">
<feFlood flood-opacity="0" result="BackgroundImageFix"/>
<feBlend mode="normal" in="SourceGraphic" in2="BackgroundImageFix" result="shape"/>
<feGaussianBlur stdDeviation="102" result="effect1_foregroundBlur_1010_125"/>
</filter>
</defs>
</svg>
