<svg width="235" height="79" viewBox="0 0 235 79" fill="none" xmlns="http://www.w3.org/2000/svg">
<g id="divider">
<rect id="Rectangle 119" x="0.5" y="0.5" width="39" height="39" stroke="#8A8A8A"/>
<rect id="Rectangle 120" x="0.5" y="39.5" width="39" height="39" stroke="#8A8A8A"/>
<rect id="Rectangle 121" x="39.5" y="0.5" width="39" height="39" stroke="#8A8A8A"/>
<rect id="Rectangle 122" x="39.5" y="39.5" width="39" height="39" stroke="#8A8A8A"/>
<rect id="Rectangle 123" x="78.5" y="0.5" width="39" height="39" stroke="#8A8A8A"/>
<rect id="Rectangle 124" x="78.5" y="39.5" width="39" height="39" stroke="#8A8A8A"/>
<rect id="Rectangle 125" x="117.5" y="0.5" width="39" height="39" stroke="#8A8A8A"/>
<rect id="Rectangle 126" x="117.5" y="39.5" width="39" height="39" stroke="#8A8A8A"/>
<rect id="Rectangle 127" x="156.5" y="0.5" width="39" height="39" stroke="#8A8A8A"/>
<rect id="Rectangle 128" x="156.5" y="39.5" width="39" height="39" stroke="#8A8A8A"/>
<rect id="Rectangle 129" x="195.5" y="0.5" width="39" height="39" stroke="#8A8A8A"/>
<rect id="Rectangle 130" x="195.5" y="39.5" width="39" height="39" stroke="#8A8A8A"/>
<g id="Portal">
<mask id="path-13-inside-1_413_124" fill="white">
<path fill-rule="evenodd" clip-rule="evenodd" d="M117.5 60C117.459 48.6921 108.297 39.538 97 39.538C108.322 39.538 117.5 30.3427 117.5 19C117.541 30.3079 126.703 39.462 138 39.462C126.678 39.462 117.5 48.6573 117.5 60Z"/>
</mask>
<path fill-rule="evenodd" clip-rule="evenodd" d="M117.5 60C117.459 48.6921 108.297 39.538 97 39.538C108.322 39.538 117.5 30.3427 117.5 19C117.541 30.3079 126.703 39.462 138 39.462C126.678 39.462 117.5 48.6573 117.5 60Z" fill="#A3A3A3" stroke="#8A8A8A" stroke-width="2" mask="url(#path-13-inside-1_413_124)"/>
</g>
</g>
</svg>
