<svg width="432" height="88" viewBox="0 0 432 88" fill="none" xmlns="http://www.w3.org/2000/svg">
<g id="divider">
<g id="grid">
<rect id="Rectangle 183" x="1" y="44" width="43" height="43" stroke="currentColor" stroke-width="2"/>
<rect id="Rectangle 185" x="44" y="44" width="43" height="43" stroke="currentColor" stroke-width="2"/>
<rect id="Rectangle 187" x="87" y="44" width="43" height="43" stroke="currentColor" stroke-width="2"/>
<rect id="Rectangle 189" x="130" y="44" width="43" height="43" stroke="currentColor" stroke-width="2"/>
<rect id="Rectangle 191" x="173" y="44" width="43" height="43" stroke="currentColor" stroke-width="2"/>
<rect id="Rectangle 193" x="216" y="44" width="43" height="43" stroke="currentColor" stroke-width="2"/>
<rect id="Rectangle 195" x="259" y="44" width="43" height="43" stroke="currentColor" stroke-width="2"/>
<rect id="Rectangle 197" x="302" y="44" width="43" height="43" stroke="currentColor" stroke-width="2"/>
<rect id="Rectangle 199" x="345" y="44" width="43" height="43" stroke="currentColor" stroke-width="2"/>
<g id="Rectangle 201">
<mask id="path-10-inside-1_990_346" fill="white">
<path d="M387 43H432V88H387V43Z"/>
</mask>
<path d="M387 43V41H385V43H387ZM387 88H385V90H387V88ZM387 43V45H432V43V41H387V43ZM432 88V86H387V88V90H432V88ZM387 88H389V43H387H385V88H387Z" fill="currentColor" mask="url(#path-10-inside-1_990_346)"/>
</g>
<rect id="Rectangle 184" x="1" y="1" width="43" height="43" stroke="currentColor" stroke-width="2"/>
<rect id="Rectangle 186" x="44" y="1" width="43" height="43" stroke="currentColor" stroke-width="2"/>
<rect id="Rectangle 188" x="87" y="1" width="43" height="43" stroke="currentColor" stroke-width="2"/>
<rect id="Rectangle 190" x="130" y="1" width="43" height="43" stroke="currentColor" stroke-width="2"/>
<rect id="Rectangle 192" x="173" y="1" width="43" height="43" stroke="currentColor" stroke-width="2"/>
<rect id="Rectangle 194" x="216" y="1" width="43" height="43" stroke="currentColor" stroke-width="2"/>
<rect id="Rectangle 196" x="259" y="1" width="43" height="43" stroke="currentColor" stroke-width="2"/>
<rect id="Rectangle 198" x="302" y="1" width="43" height="43" stroke="currentColor" stroke-width="2"/>
<rect id="Rectangle 200" x="345" y="1" width="43" height="43" stroke="currentColor" stroke-width="2"/>
<g id="Rectangle 202">
<mask id="path-21-inside-2_990_346" fill="white">
<path d="M387 0H432V45H387V0Z"/>
</mask>
<path d="M387 0V-2H385V0H387ZM387 45H385V47H387V45ZM387 0V2H432V0V-2H387V0ZM432 45V43H387V45V47H432V45ZM387 45H389V0H387H385V45H387Z" fill="currentColor" mask="url(#path-21-inside-2_990_346)"/>
</g>
</g>
<path id="portal" d="M129.947 22C132.385 32.9123 140.969 41.4982 151.871 43.9194C140.935 46.3483 132.33 54.981 129.924 65.9423C127.486 55.0302 118.902 46.4435 108 44.0229C118.938 41.5943 127.541 32.9622 129.947 22Z" fill="#616161" stroke="currentColor" stroke-width="1.37652"/>
<path id="portal_2" d="M344.947 22C347.385 32.9123 355.969 41.4982 366.871 43.9194C355.935 46.3483 347.33 54.981 344.924 65.9423C342.486 55.0302 333.902 46.4435 323 44.0229C333.938 41.5943 342.541 32.9622 344.947 22Z" fill="#616161" stroke="currentColor" stroke-width="1.37652"/>
</g>
</svg>
