<svg width="1171" height="547" viewBox="0 0 1171 547" fill="none" xmlns="http://www.w3.org/2000/svg">
<g id="grid elements">
<rect id="bg" width="1171" height="547" fill="#D9D9D9"/>
<path id="element-08" d="M1043 29.5001L1037.47 19.9908L1020.03 29.9873V10H1008.97V29.9907L991.531 19.9943L986 29.5047L1003.44 39.4988L986.005 49.492L991.536 59.0012L1008.97 49.0048V69H1020.03V49.0117L1037.46 59.0058L1043 49.4954L1025.56 39.4988L1043 29.5001Z" fill="#303030"/>
<path id="element-07" fill-rule="evenodd" clip-rule="evenodd" d="M936.5 255C936.459 243.692 927.297 234.538 916 234.538C927.322 234.538 936.5 225.343 936.5 214C936.541 225.308 945.703 234.462 957 234.462C945.678 234.462 936.5 243.657 936.5 255Z" fill="#8A8A8A"/>
<path id="element-06" d="M820 79H793.334V65.6674H806.667V52.3337H820V79ZM806.667 52.3337H793.334V65.6674H780V39H806.667V52.3337Z" fill="#8A8A8A"/>
<path id="element-05" d="M624.508 140.538C626.279 148.466 632.515 154.703 640.435 156.462C632.49 158.226 626.239 164.498 624.491 172.461C622.72 164.534 616.484 158.296 608.564 156.537C616.51 154.773 622.76 148.502 624.508 140.538Z" fill="#C4C2BB" stroke="#8A8A8A"/>
<path id="element-04" fill-rule="evenodd" clip-rule="evenodd" d="M585.5 333C585.459 321.692 576.297 312.538 565 312.538C576.322 312.538 585.5 303.343 585.5 292C585.541 303.308 594.703 312.462 606 312.462C594.678 312.462 585.5 321.657 585.5 333Z" fill="#8A8A8A"/>
<path id="element-03" d="M546.511 318.269C549.244 335.289 562.677 348.721 579.679 351.426C562.628 354.138 549.169 367.641 546.488 384.73C543.754 367.71 530.322 354.277 513.32 351.573C530.371 348.862 543.831 335.358 546.511 318.269Z" fill="#C4C2BB" stroke="#8A8A8A"/>
<g id="element-02">
<path d="M215 507H205.5V497.5H215V507Z" fill="#8A8A8A"/>
<path d="M234 507H224.5V497.5H234V507Z" fill="#8A8A8A"/>
<path d="M205.5 497.5H196V488H205.5V497.5Z" fill="#8A8A8A"/>
<path d="M224.5 497.5H215V488H224.5V497.5Z" fill="#8A8A8A"/>
<path d="M215 488H205.5V478.5H215V488Z" fill="#8A8A8A"/>
<path d="M234 488H224.5V478.5H234V488Z" fill="#8A8A8A"/>
<path d="M205.5 478.5H196V469H205.5V478.5Z" fill="#8A8A8A"/>
<path d="M224.5 478.5H215V469H224.5V478.5Z" fill="#8A8A8A"/>
</g>
<path id="element-01" d="M78.0312 294.708C78.1823 294.3 78.7328 294.275 78.9336 294.632L78.9688 294.708L83.4082 306.705C83.5601 307.116 83.8843 307.44 84.2949 307.592L96.292 312.031C96.7001 312.182 96.7255 312.733 96.3682 312.934L96.292 312.969L84.2949 317.408C83.8843 317.56 83.5601 317.884 83.4082 318.295L78.9688 330.292C78.8177 330.7 78.2672 330.725 78.0664 330.368L78.0312 330.292L73.5918 318.295C73.4399 317.884 73.1157 317.56 72.7051 317.408L60.708 312.969C60.2999 312.818 60.2745 312.267 60.6318 312.066L60.708 312.031L72.7051 307.592C73.1157 307.44 73.4399 307.116 73.5918 306.705L78.0312 294.708Z" fill="#C4C2BB" stroke="#8A8A8A"/>
</g>
</svg>
