<svg width="1366" height="196" viewBox="0 0 1366 196" fill="none" xmlns="http://www.w3.org/2000/svg">
<g id="Technologies-grid-lg">
<g id="grid">
<g id="row02">
<rect id="sq01" x="0.5" y="0.5" width="39" height="39" stroke="#8A8A8A"/>
<rect id="sq02" x="39.5" y="0.5" width="39" height="39" stroke="#8A8A8A"/>
<rect id="sq03" x="78.5" y="0.5" width="39" height="39" stroke="#8A8A8A"/>
<rect id="sq04" x="117.5" y="0.5" width="39" height="39" stroke="#8A8A8A"/>
<rect id="sq05" x="156.5" y="0.5" width="39" height="39" stroke="#8A8A8A"/>
<rect id="sq06" x="195.5" y="0.5" width="39" height="39" stroke="#8A8A8A"/>
<rect id="sq07" x="234.5" y="0.5" width="39" height="39" stroke="#8A8A8A"/>
<rect id="sq08" x="273.5" y="0.5" width="39" height="39" stroke="#8A8A8A"/>
<rect id="sq09" x="312.5" y="0.5" width="39" height="39" stroke="#8A8A8A"/>
<rect id="sq10" x="351.5" y="0.5" width="39" height="39" stroke="#8A8A8A"/>
<rect id="sq11" x="390.5" y="0.5" width="39" height="39" stroke="#8A8A8A"/>
<rect id="sq12" x="429.5" y="0.5" width="39" height="39" stroke="#8A8A8A"/>
<rect id="sq13" x="468.5" y="0.5" width="39" height="39" stroke="#8A8A8A"/>
<rect id="sq14" x="507.5" y="0.5" width="39" height="39" stroke="#8A8A8A"/>
<rect id="sq15" x="546.5" y="0.5" width="39" height="39" stroke="#8A8A8A"/>
<rect id="sq16" x="585.5" y="0.5" width="39" height="39" stroke="#8A8A8A"/>
<rect id="sq17" x="624.5" y="0.5" width="39" height="39" stroke="#8A8A8A"/>
<rect id="sq18" x="663.5" y="0.5" width="39" height="39" stroke="#8A8A8A"/>
<rect id="sq18_2" x="702.5" y="0.5" width="39" height="39" stroke="#8A8A8A"/>
<rect id="sq18_3" x="741.5" y="0.5" width="39" height="39" stroke="#8A8A8A"/>
<rect id="sq18_4" x="780.5" y="0.5" width="39" height="39" stroke="#8A8A8A"/>
<rect id="sq19" x="819.5" y="0.5" width="39" height="39" stroke="#8A8A8A"/>
<rect id="sq19_2" x="858.5" y="0.5" width="39" height="39" stroke="#8A8A8A"/>
<rect id="sq19_3" x="897.5" y="0.5" width="39" height="39" stroke="#8A8A8A"/>
<rect id="sq20" x="936.5" y="0.5" width="39" height="39" stroke="#8A8A8A"/>
<rect id="sq21" x="975.5" y="0.5" width="39" height="39" stroke="#8A8A8A"/>
<rect id="sq22" x="1014.5" y="0.5" width="39" height="39" stroke="#8A8A8A"/>
<rect id="sq23" x="1053.5" y="0.5" width="39" height="39" stroke="#8A8A8A"/>
<rect id="sq24" x="1092.5" y="0.5" width="39" height="39" stroke="#8A8A8A"/>
<rect id="sq25" x="1131.5" y="0.5" width="39" height="39" stroke="#8A8A8A"/>
<rect id="sq26" x="1170.5" y="0.5" width="39" height="39" stroke="#8A8A8A"/>
<rect id="sq27" x="1209.5" y="0.5" width="39" height="39" stroke="#8A8A8A"/>
<rect id="sq28" x="1248.5" y="0.5" width="39" height="39" stroke="#8A8A8A"/>
<rect id="sq29" x="1287.5" y="0.5" width="39" height="39" stroke="#8A8A8A"/>
<rect id="sq30" x="1326.5" y="0.5" width="39" height="39" stroke="#8A8A8A"/>
</g>
<g id="row03">
<rect id="sq01_2" x="0.5" y="39.5" width="39" height="39" stroke="#8A8A8A"/>
<rect id="sq02_2" x="39.5" y="39.5" width="39" height="39" stroke="#8A8A8A"/>
<rect id="sq03_2" x="78.5" y="39.5" width="39" height="39" stroke="#8A8A8A"/>
<rect id="sq04_2" x="117.5" y="39.5" width="39" height="39" stroke="#8A8A8A"/>
<rect id="sq05_2" x="156.5" y="39.5" width="39" height="39" stroke="#8A8A8A"/>
<rect id="sq06_2" x="195.5" y="39.5" width="39" height="39" stroke="#8A8A8A"/>
<rect id="sq07_2" x="234.5" y="39.5" width="39" height="39" stroke="#8A8A8A"/>
<rect id="sq08_2" x="273.5" y="39.5" width="39" height="39" stroke="#8A8A8A"/>
<rect id="sq09_2" x="312.5" y="39.5" width="39" height="39" stroke="#8A8A8A"/>
<path id="sq10_2" d="M390.5 39.5V69C390.5 74.2467 386.247 78.5 381 78.5H351.5V39.5H390.5Z" stroke="#8A8A8A"/>
<path id="sq21_2" d="M1014.5 39.5V78.5H985C979.753 78.5 975.5 74.2467 975.5 69V39.5H1014.5Z" stroke="#8A8A8A"/>
<rect id="sq22_2" x="1014.5" y="39.5" width="39" height="39" stroke="#8A8A8A"/>
<rect id="sq23_2" x="1053.5" y="39.5" width="39" height="39" stroke="#8A8A8A"/>
<rect id="sq24_2" x="1092.5" y="39.5" width="39" height="39" stroke="#8A8A8A"/>
<rect id="sq25_2" x="1131.5" y="39.5" width="39" height="39" stroke="#8A8A8A"/>
<rect id="sq26_2" x="1170.5" y="39.5" width="39" height="39" stroke="#8A8A8A"/>
<rect id="sq27_2" x="1209.5" y="39.5" width="39" height="39" stroke="#8A8A8A"/>
<rect id="sq28_2" x="1248.5" y="39.5" width="39" height="39" stroke="#8A8A8A"/>
<rect id="sq29_2" x="1287.5" y="39.5" width="39" height="39" stroke="#8A8A8A"/>
<rect id="sq30_2" x="1326.5" y="39.5" width="39" height="39" stroke="#8A8A8A"/>
</g>
<g id="row04">
<rect id="sq01_3" x="0.5" y="78.5" width="39" height="39" stroke="#8A8A8A"/>
<rect id="sq02_3" x="39.5" y="78.5" width="39" height="39" stroke="#8A8A8A"/>
<rect id="sq03_3" x="78.5" y="78.5" width="39" height="39" stroke="#8A8A8A"/>
<rect id="sq04_3" x="117.5" y="78.5" width="39" height="39" stroke="#8A8A8A"/>
<rect id="sq05_3" x="156.5" y="78.5" width="39" height="39" stroke="#8A8A8A"/>
<rect id="sq26_3" x="1170.5" y="78.5" width="39" height="39" stroke="#8A8A8A"/>
<rect id="sq27_3" x="1209.5" y="78.5" width="39" height="39" stroke="#8A8A8A"/>
<rect id="sq28_3" x="1248.5" y="78.5" width="39" height="39" stroke="#8A8A8A"/>
<rect id="sq29_3" x="1287.5" y="78.5" width="39" height="39" stroke="#8A8A8A"/>
<rect id="sq30_3" x="1326.5" y="78.5" width="39" height="39" stroke="#8A8A8A"/>
</g>
<g id="row05">
<rect id="sq01_4" x="0.5" y="117.5" width="39" height="39" stroke="#8A8A8A"/>
<path id="sq02_4" d="M78.5 117.5V147C78.5 152.247 74.2467 156.5 69 156.5H39.5V117.5H78.5Z" stroke="#8A8A8A"/>
<rect id="sq29_4" x="1287.5" y="117.5" width="39" height="39" stroke="#8A8A8A"/>
<rect id="sq30_4" x="1326.5" y="117.5" width="39" height="39" stroke="#8A8A8A"/>
</g>
<g id="row06">
<rect id="sq01_5" x="0.5" y="156.5" width="39" height="39" stroke="#8A8A8A"/>
<path id="sq29_5" d="M1326.5 156.5V195.5H1297C1291.75 195.5 1287.5 191.247 1287.5 186V156.5H1326.5Z" stroke="#8A8A8A"/>
<rect id="sq30_5" x="1326.5" y="156.5" width="39" height="39" stroke="#8A8A8A"/>
</g>
</g>
<g id="elements">
<path id="element-06" d="M1366 40H1339.33V26.6674H1352.67V13.3337H1366V40ZM1352.67 13.3337H1339.33V26.6674H1326V0H1352.67V13.3337Z" fill="#8A8A8A"/>
<path id="element-05" fill-rule="evenodd" clip-rule="evenodd" d="M1287.5 138C1287.46 126.692 1278.3 117.538 1267 117.538C1278.32 117.538 1287.5 108.343 1287.5 97C1287.54 108.308 1296.7 117.462 1308 117.462C1296.68 117.462 1287.5 126.657 1287.5 138Z" fill="#8A8A8A"/>
<path id="element-04" d="M1053.51 6.26855C1056.24 23.2889 1069.68 36.7215 1086.68 39.4258C1069.63 42.1377 1056.17 55.6414 1053.49 72.7305C1050.75 55.7103 1037.32 42.2771 1020.32 39.5732C1037.37 36.8616 1050.83 23.3583 1053.51 6.26855Z" fill="#C4C2BB" stroke="#8A8A8A"/>
<path id="element-03" d="M351.031 21.708C351.182 21.2999 351.733 21.2745 351.934 21.6318L351.969 21.708L356.408 33.7051C356.56 34.1157 356.884 34.4399 357.295 34.5918L369.292 39.0312C369.7 39.1823 369.725 39.7328 369.368 39.9336L369.292 39.9688L357.295 44.4082C356.884 44.5601 356.56 44.8843 356.408 45.2949L351.969 57.292C351.818 57.7001 351.267 57.7255 351.066 57.3682L351.031 57.292L346.592 45.2949C346.44 44.8843 346.116 44.5601 345.705 44.4082L333.708 39.9688C333.3 39.8177 333.275 39.2672 333.632 39.0664L333.708 39.0312L345.705 34.5918C346.116 34.4399 346.44 34.1157 346.592 33.7051L351.031 21.708Z" fill="#C4C2BB" stroke="#8A8A8A"/>
<g id="element-02">
<path d="M176 39H166.5V29.5H176V39Z" fill="#8A8A8A"/>
<path d="M195 39H185.5V29.5H195V39Z" fill="#8A8A8A"/>
<path d="M166.5 29.5H157V20H166.5V29.5Z" fill="#8A8A8A"/>
<path d="M185.5 29.5H176V20H185.5V29.5Z" fill="#8A8A8A"/>
<path d="M176 20H166.5V10.5H176V20Z" fill="#8A8A8A"/>
<path d="M195 20H185.5V10.5H195V20Z" fill="#8A8A8A"/>
<path d="M166.5 10.5H157V1H166.5V10.5Z" fill="#8A8A8A"/>
<path d="M185.5 10.5H176V1H185.5V10.5Z" fill="#8A8A8A"/>
</g>
<path id="element-01" d="M39.5078 62.5381C41.2787 70.4656 47.5149 76.703 55.4346 78.4619C47.4899 80.2264 41.2394 86.4978 39.4912 94.4609C37.7199 86.5336 31.4843 80.2956 23.5645 78.5371C31.5096 76.7728 37.7598 70.5018 39.5078 62.5381Z" fill="#C4C2BB" stroke="#8A8A8A"/>
</g>
</g>
</svg>
